<svg width="25" height="24" viewBox="0 0 25 24" fill="none" xmlns="http://www.w3.org/2000/svg">
<path fill-rule="evenodd" clip-rule="evenodd" d="M7.85871 3.25C8.27292 3.25 8.60871 3.58579 8.60871 4V5.66763C11.4364 5.4158 14.281 5.4158 17.1087 5.66763V4C17.1087 3.58579 17.4445 3.25 17.8587 3.25C18.2729 3.25 18.6087 3.58579 18.6087 4V5.81644C20.1017 6.02754 21.2813 7.20847 21.4809 8.71484L21.5675 9.36779C21.9315 12.1141 21.9001 14.8984 21.4741 17.6359C21.2631 18.9919 20.1615 20.0335 18.7957 20.1681L17.6027 20.2858C14.4477 20.5969 11.2697 20.5969 8.11464 20.2858L6.92163 20.1681C5.55589 20.0335 4.45423 18.9919 4.24322 17.6359C3.81726 14.8984 3.78582 12.1141 4.14986 9.36779L4.23641 8.71484C4.43609 7.20845 5.61564 6.02751 7.10871 5.81643V4C7.10871 3.58579 7.4445 3.25 7.85871 3.25ZM8.30387 7.2028C11.3331 6.90408 14.3843 6.90408 17.4135 7.2028L18.3189 7.2921C19.1857 7.37757 19.8795 8.04854 19.9939 8.91194L20.0805 9.56489C20.1107 9.793 20.1381 10.0214 20.1626 10.25H5.55477C5.57926 10.0214 5.60661 9.79301 5.63685 9.5649L5.7234 8.91194C5.83785 8.04854 6.53167 7.37757 7.39842 7.2921L8.30387 7.2028ZM5.43554 11.75C5.33736 13.6381 5.43409 15.5332 5.72538 17.4052C5.83122 18.0854 6.3838 18.6078 7.06884 18.6754L8.26185 18.793C11.319 19.0945 14.3984 19.0945 17.4555 18.793L18.6485 18.6754C19.3335 18.6078 19.8861 18.0854 19.992 17.4052C20.2833 15.5332 20.38 13.6381 20.2818 11.75H5.43554Z" fill="#5A9206"/>
</svg>
