<svg width="25" height="25" viewBox="0 0 25 25" fill="none" xmlns="http://www.w3.org/2000/svg">
<path fill-rule="evenodd" clip-rule="evenodd" d="M2.87434 8.98648C2.5942 11.5894 2.60669 14.5914 2.99651 17.1837C3.21221 18.6181 4.38288 19.7177 5.82795 19.8434L7.33818 19.9746C10.4872 20.2484 13.654 20.2484 16.8031 19.9746L18.3133 19.8434C19.7584 19.7177 20.9291 18.6181 21.1448 17.1837C21.5346 14.5914 21.5471 11.5896 21.2669 8.98663C21.2307 8.68487 21.19 8.38352 21.1448 8.08267C20.9291 6.64828 19.7584 5.54863 18.3133 5.42301L16.8031 5.29173C13.654 5.01799 10.4872 5.01799 7.33818 5.29173L5.82795 5.42301C4.38288 5.54863 3.21221 6.64828 2.99651 8.08267C2.95128 8.38346 2.91056 8.68477 2.87434 8.98648ZM7.46808 6.7861C10.5306 6.51987 13.6106 6.51987 16.6732 6.7861L18.1834 6.91738C18.9377 6.98295 19.5488 7.55697 19.6614 8.30572C19.6731 8.38348 19.6845 8.46127 19.6956 8.5391L14.1346 11.6286C12.851 12.3417 11.2902 12.3417 10.0066 11.6286L4.4457 8.53914C4.45676 8.4613 4.46814 8.38349 4.47983 8.30572C4.59243 7.55697 5.20352 6.98295 5.95785 6.91738L7.46808 6.7861ZM19.8791 10.1531C20.0731 12.4208 20.0005 14.7057 19.6614 16.9606C19.5488 17.7094 18.9377 18.2834 18.1834 18.349L16.6732 18.4803C13.6106 18.7465 10.5306 18.7465 7.46808 18.4803L5.95785 18.349C5.20352 18.2834 4.59243 17.7094 4.47983 16.9606C4.14074 14.7057 4.06818 12.4209 4.26215 10.1531L9.27817 12.9398C11.0148 13.9046 13.1264 13.9046 14.863 12.9398L19.8791 10.1531Z" fill="#5A9206"/>
</svg>
