<svg width="25" height="25" viewBox="0 0 25 25" fill="none" xmlns="http://www.w3.org/2000/svg">
<path fill-rule="evenodd" clip-rule="evenodd" d="M7.45312 10.3455C7.45312 7.72211 9.57978 5.59546 12.2031 5.59546C14.8264 5.59546 16.9531 7.72211 16.9531 10.3455C16.9531 12.9689 14.8264 15.0955 12.2031 15.0955C9.57978 15.0955 7.45312 12.9689 7.45312 10.3455ZM12.2031 7.09546C10.4082 7.09546 8.95313 8.55053 8.95313 10.3455C8.95313 12.1404 10.4082 13.5955 12.2031 13.5955C13.998 13.5955 15.4531 12.1404 15.4531 10.3455C15.4531 8.55053 13.998 7.09546 12.2031 7.09546Z" fill="#5A9206"/>
<path fill-rule="evenodd" clip-rule="evenodd" d="M3.72751 9.20231C4.08184 4.9037 7.67399 1.59546 11.9872 1.59546H12.4192C16.7324 1.59546 20.3245 4.9037 20.6788 9.20231C20.8692 11.5115 20.1559 13.8044 18.6892 15.5981L13.8962 21.4599C13.0212 22.53 11.3852 22.53 10.5102 21.4599L5.71711 15.5981C4.25045 13.8044 3.53717 11.5115 3.72751 9.20231ZM11.9872 3.09546C8.45464 3.09546 5.51263 5.80494 5.22244 9.32554C5.06402 11.2474 5.65767 13.1557 6.87833 14.6486L11.6714 20.5104C11.9463 20.8465 12.4601 20.8465 12.735 20.5104L17.528 14.6486C18.7487 13.1557 19.3423 11.2474 19.1839 9.32554C18.8937 5.80494 15.9517 3.09546 12.4192 3.09546H11.9872Z" fill="#5A9206"/>
</svg>
