<svg width="18" height="18" viewBox="0 0 18 18" fill="none" xmlns="http://www.w3.org/2000/svg">
<path fill-rule="evenodd" clip-rule="evenodd" d="M4.77994 7.30728C6.06681 10.1094 8.35678 12.3372 11.2034 13.5444L11.2124 13.5482L11.7624 13.7933C12.4627 14.1053 13.2858 13.8837 13.7348 13.2623L14.6524 11.9924C14.7084 11.9149 14.6939 11.807 14.6195 11.7469L13.0177 10.4547C12.9381 10.3904 12.8209 10.4054 12.76 10.4876L12.1366 11.3288C11.9852 11.5331 11.7118 11.6041 11.4801 11.4993C9.35153 10.5359 7.641 8.82544 6.67769 6.69684C6.57284 6.46516 6.64383 6.19174 6.84813 6.04034L7.68937 5.41692C7.77157 5.356 7.78654 5.23892 7.72229 5.15929L6.42986 3.55726C6.36979 3.48279 6.26198 3.46834 6.18441 3.52433L4.90763 4.44605C4.2821 4.89762 4.06182 5.72767 4.38111 6.42999L4.77952 7.30635C4.77966 7.30666 4.7798 7.30697 4.77994 7.30728ZM10.7773 14.5368C7.68416 13.2238 5.1963 10.8024 3.79803 7.75696L3.79718 7.75516L3.39794 6.87696C2.86579 5.70642 3.23293 4.32301 4.27549 3.57038L5.55226 2.64867C6.09522 2.25669 6.84995 2.35793 7.27042 2.87913L8.56284 4.48117C9.01256 5.03857 8.9078 5.85821 8.33237 6.28462L7.85033 6.64186C8.66465 8.22179 9.95511 9.51232 11.5351 10.3266L11.8923 9.84453C12.3187 9.26918 13.1384 9.16442 13.6958 9.61413L15.2976 10.9063C15.8189 11.3269 15.9201 12.082 15.5278 12.625L14.6102 13.8948C13.8619 14.9305 12.49 15.2999 11.3229 14.7798L10.7773 14.5368Z" fill="#5A9206"/>
</svg>
